<svg width="112" height="54" viewBox="0 0 112 54" fill="none" xmlns="http://www.w3.org/2000/svg">
<path d="M11.8511 23.8254C5.31148 23.8254 0 18.8156 0 12.327C0 5.83838 5.25008 0.888916 11.7896 0.888916C15.8423 0.888916 19.4345 2.72987 21.6758 6.07982C22.4126 7.16628 22.996 8.40365 23.1802 9.70137H17.1625C16.2722 7.4379 14.2458 5.83838 11.7282 5.83838C8.07468 5.83838 5.71061 8.88652 5.71061 12.2968C5.71061 15.7071 8.07468 18.876 11.7589 18.876C14.2765 18.876 16.1494 17.3368 17.1625 15.1337H23.1802C21.9214 20.3548 17.2853 23.8254 11.8511 23.8254Z" fill="black"/>
<path d="M64.1061 14.3491V23.403H59.0709V14.5906C59.0709 12.7798 58.8253 10.9086 56.4919 10.9086C54.2507 10.9086 53.698 12.4478 53.698 14.3491V23.403H48.6629V14.3793C48.6629 12.6892 48.2637 10.9086 46.1453 10.9086C43.8119 10.9086 43.29 12.6289 43.29 14.5906V23.403H38.2548V12.9005L27.0178 28.9259H21.0923L24.4388 24.1877V6.8344H29.474V16.8842H29.6275L36.5969 6.8344H42.983V8.58482H43.0444C44.0268 6.89476 45.7769 6.26099 47.6804 6.26099C49.8603 6.26099 51.5182 7.34745 52.5313 9.21859C53.7594 7.34745 55.6016 6.26099 57.8735 6.26099C59.5315 6.26099 61.128 6.74386 62.2947 7.92086C64.1982 9.85236 64.1061 11.814 64.1061 14.3491Z" fill="black"/>
<path d="M76.0184 23.9763C74.2991 23.9763 72.0579 23.252 71.1982 21.6525H71.1368V23.4029H66.3165V1.3114H71.3517V8.13199C72.6719 6.77391 74.3605 6.26086 76.2334 6.26086C77.4614 6.26086 78.6588 6.56265 79.7948 7.07571C83.0493 8.55451 84.523 11.5725 84.523 15.0129C84.523 19.9926 81.2685 23.9763 76.0184 23.9763ZM75.343 10.9085C72.9482 10.9085 71.1675 12.7495 71.1675 15.0733C71.1675 17.4273 72.7947 19.3286 75.2509 19.3286C77.6764 19.3286 79.4571 17.4575 79.4571 15.1035C79.4878 12.84 77.7378 10.9085 75.343 10.9085Z" fill="black"/>
<path d="M98.6766 23.403V21.6224H98.6152C97.6942 23.3125 95.5143 23.9764 93.7029 23.9764C88.5142 23.9764 85.2291 20.0229 85.2291 15.1036C85.2291 10.2749 88.637 6.26099 93.7029 6.26099C95.545 6.26099 97.6328 6.95512 98.6152 8.58482H98.6766V6.8344H103.712V23.403H98.6766ZM94.4397 10.9086C91.9836 10.9086 90.2949 12.81 90.2949 15.164C90.2949 17.4576 92.1064 19.3288 94.4704 19.3288C96.9266 19.3288 98.6766 17.4878 98.6766 15.1036C98.6766 12.6892 96.8959 10.9086 94.4397 10.9086Z" fill="black"/>
<path d="M106.076 23.4029V1.3114H111.111V23.4029H106.076Z" fill="black"/>
<path d="M7.73654 35.8882V39.6606H14.2761V44.6403H7.73654V53.0906H2.24084V30.9387H14.5524V35.9184H7.73654V35.8882Z" fill="black"/>
<path d="M15.8726 34.7112V30.9387H20.9385V34.7112H15.8726ZM15.8726 53.0906V36.4918H20.9385V53.0906H15.8726Z" fill="black"/>
<path d="M33.8943 53.0905V44.0366C33.8943 42.1957 33.5259 40.5961 31.2539 40.5961C28.9205 40.5961 28.3679 42.1051 28.3679 44.0668V53.0905H23.302V36.4917H27.9995V38.2723H28.0609C29.1355 36.5521 30.6092 35.9485 32.6662 35.9485C34.1092 35.9485 35.8899 36.4917 36.9952 37.3971C38.6224 38.725 38.9295 40.8074 38.9295 42.7691V53.1509H33.8943V53.0905Z" fill="black"/>
<path d="M47.1581 40.2341V53.0604H42.123V40.2341H39.6361V36.4616H42.123V30.9387H47.1888V36.4616H49.6143V40.2341H47.1581Z" fill="black"/>
<path d="M66.9611 46.3001H54.281C54.588 48.2617 56.246 49.4387 58.2416 49.4387C59.6232 49.4387 60.4829 48.8955 61.3118 47.8694H66.5005C65.0268 51.1892 62.0487 53.6035 58.2416 53.6035C53.2986 53.6035 49.2766 49.65 49.2766 44.7911C49.2766 39.9623 53.1757 35.8579 58.1495 35.8579C63.3382 35.8579 67.0839 39.9322 67.0839 44.9118C67.0839 45.4249 67.0532 45.8474 66.9611 46.3001ZM58.1802 40.0831C56.3688 40.0831 54.7416 41.1393 54.3424 42.9199H62.018C61.6496 41.1393 60.0223 40.0831 58.1802 40.0831Z" fill="black"/>
<path d="M76.7551 53.6035C71.6892 53.6035 67.6979 49.6802 67.6979 44.7005C67.6979 39.7813 71.5971 35.8579 76.6323 35.8579C80.9613 35.8579 84.707 38.6043 85.5973 42.8294H80.47C79.7332 41.2601 78.4437 40.5056 76.6937 40.5056C74.2682 40.5056 72.7945 42.4673 72.7945 44.7307C72.7945 47.0546 74.3603 48.9559 76.8165 48.9559C78.5051 48.9559 79.7025 48.1712 80.47 46.7528H85.628C84.6149 50.827 80.992 53.6035 76.7551 53.6035Z" fill="black"/>
<path d="M97.5405 53.0906V44.0669C97.5405 42.2561 97.0186 40.5962 94.8387 40.5962C92.6588 40.5962 92.0141 42.0146 92.0141 43.8858V53.0906H86.9482V30.9387H92.0141V38.0008H92.0755C92.9659 36.4314 94.7159 35.9184 96.4352 35.9184C98.0931 35.9184 99.9353 36.4918 101.041 37.7291C102.668 39.5399 102.637 41.5318 102.637 43.7952V53.0604H97.5405V53.0906Z" fill="black"/>
</svg>
