<svg width="92" height="30" viewBox="0 0 92 30" fill="none" xmlns="http://www.w3.org/2000/svg">
<path d="M10.1094 9.67367V14.0602H16.5295C15.9485 16.1518 14.1183 17.5172 11.3876 17.5172C8.68597 17.5172 5.49046 15.5708 5.49046 11.0681C5.49046 6.82676 8.65692 4.82231 11.3586 4.82231C13.6826 4.82231 15.2513 6.10051 16.0937 7.61111H22.2523C21.0613 3.45696 16.6457 0 11.5038 0C5.17091 0 0 4.64801 0 11.0681C0 17.2557 4.90946 22.3395 11.4167 22.3395C17.3719 22.3395 22.8914 18.011 22.8914 10.8066C22.8914 10.3709 22.8914 10.0513 22.8624 9.67367H10.1094Z" fill="black"/>
<path d="M55.5879 5.78096H50.7656V21.9037H55.5879V5.78096ZM55.5879 0.406701H50.7656V4.06701H55.5879V0.406701Z" fill="black"/>
<path d="M57.6253 21.9037H62.4476V13.1306C62.4476 12.1429 62.4476 9.76082 65.2073 9.76082C67.7347 9.76082 67.7347 11.9686 67.7347 13.1016V21.9037H72.557V11.8234C72.557 8.65692 71.5693 7.37872 70.6978 6.62341C69.8263 5.86811 68.1123 5.22901 66.5727 5.22901C63.6967 5.22901 62.68 6.71056 62.1861 7.49491H62.128V5.78096H57.6253V21.9037Z" fill="black"/>
<path d="M91.2314 5.78096H86.4091V7.29156H86.351C85.4795 5.89716 83.7074 5.25806 81.9063 5.25806C77.7231 5.25806 73.7723 8.42451 73.7723 13.944C73.7723 19.1149 77.5198 22.4266 81.9063 22.4266C84.4337 22.4266 85.8281 21.0613 86.3219 20.1317H86.38V20.6255C86.38 24.954 83.0683 25.0121 82.4583 25.0121C82.1387 25.0121 80.3376 25.0121 79.6404 23.4143H74.0628C74.3824 25.7093 77.0617 29.0791 82.6683 29.0791C86.6482 29.0791 89.0236 27.3071 90.2727 25.2736C91.0571 23.9082 91.2314 22.3685 91.2314 19.9574V5.78096ZM78.5946 13.7697C78.5946 11.4167 80.4248 9.76082 82.4873 9.76082C84.637 9.76082 86.4091 11.3295 86.4091 13.915C86.4091 16.239 84.7823 17.9239 82.4583 17.9239C80.4538 17.9239 78.5946 16.3552 78.5946 13.7697Z" fill="black"/>
<path d="M29.8898 5.78096H25.0675V21.9037H29.8898V5.78096ZM29.8898 0.406701H25.0675V4.06701H29.8898V0.406701Z" fill="black"/>
<path d="M48.9435 4.55472H43.6586L40.4017 15.1859H40.3402L37.0833 4.55472H31.7984L37.9129 21.6077H42.7983L48.9435 4.55472Z" fill="black"/>
</svg>
