<svg width="62" height="62" viewBox="0 0 62 62" fill="none" xmlns="http://www.w3.org/2000/svg">
<path fill-rule="evenodd" clip-rule="evenodd" d="M25.0851 20.5584V48.8291C25.0851 52.9958 21.6573 56.4102 17.4742 56.4102H16.7189C12.5358 56.4102 9.10791 52.9958 9.10791 48.8291V28.1396C9.10791 23.9729 12.5358 20.5584 16.7189 20.5584H25.0851ZM25.0851 20.5583H25.0851H16.7528C12.5512 20.5583 9.10826 17.1562 9.10826 13.0044V12.2547C9.10826 8.10296 12.5512 4.70081 16.7528 4.70081H25.0851H44.3076C48.5092 4.70081 51.9522 8.10296 51.9522 12.2547V13.0044C52.0105 17.1562 48.5675 20.5583 44.3076 20.5583L43.0949 20.5583C47.5227 20.5583 51.1348 24.1205 51.1348 28.4871C51.1931 32.8536 47.5808 36.4158 43.153 36.4158L33.125 36.4158C28.6972 36.4158 25.0851 32.8536 25.0851 28.487V20.5583Z" fill="url(#paint0_linear_145_648)"/>
<defs>
<linearGradient id="paint0_linear_145_648" x1="16.0618" y1="62.3855" x2="61.1861" y2="43.2442" gradientUnits="userSpaceOnUse">
<stop stop-color="#8BFFAC"/>
<stop offset="1" stop-color="#2C67FF"/>
</linearGradient>
</defs>
</svg>
